<svg width="24" height="24" viewBox="0 0 24 24" fill="none" xmlns="http://www.w3.org/2000/svg">
<path d="M21.4402 16.6446C21.4182 16.5196 21.3932 16.4096 21.3652 16.3116C21.2162 15.7786 20.7502 15.3736 20.1792 15.2786L15.8472 14.5577C15.3032 14.4657 14.7512 14.6776 14.4152 15.1066C14.3642 15.1706 14.3162 15.2366 14.2702 15.3036C14.1082 15.5406 13.8382 15.6296 13.5992 15.5256C11.2952 14.5236 9.47423 12.7026 8.47323 10.3986C8.36923 10.1596 8.45618 9.89162 8.69118 9.73162C8.78018 9.67062 8.86619 9.60663 8.95119 9.53863C9.36919 9.20063 9.57621 8.66062 9.49221 8.12762L8.82223 3.87261C8.73423 3.31261 8.35023 2.85663 7.82223 2.68163C7.68723 2.63763 7.53023 2.59561 7.34823 2.56261C6.15623 2.34961 4.93623 2.68767 3.99923 3.49267C3.01323 4.34067 2.46722 5.57067 2.50222 6.86767C2.71722 14.8557 9.14422 21.2826 17.1322 21.4986C17.1712 21.4996 17.2092 21.4996 17.2482 21.4996C18.4922 21.4996 19.6682 20.9606 20.4902 20.0096C21.3022 19.0716 21.6482 17.8446 21.4402 16.6446ZM19.7322 19.3586C19.0822 20.1106 18.1492 20.5387 17.1582 20.5007C9.70022 20.2997 3.70118 14.2996 3.50118 6.84264C3.47418 5.84764 3.89323 4.90465 4.65023 4.25365C5.21923 3.76465 5.92419 3.50365 6.64419 3.50365C6.81919 3.50365 6.99519 3.51865 7.17019 3.55065C7.29919 3.57365 7.41021 3.60266 7.50521 3.63366C7.67721 3.69066 7.80217 3.84263 7.83217 4.03063L8.50319 8.28564C8.53119 8.46664 8.46119 8.64863 8.32119 8.76263C8.25919 8.81363 8.19422 8.86167 8.12722 8.90667C7.49322 9.33767 7.2582 10.1156 7.5552 10.7986C8.6582 13.3366 10.6622 15.3406 13.2002 16.4446C13.8822 16.7396 14.6612 16.5056 15.0962 15.8686C15.1292 15.8206 15.1642 15.7726 15.2012 15.7256C15.3112 15.5826 15.4952 15.5147 15.6822 15.5447L20.0142 16.2656C20.2042 16.2976 20.3562 16.4217 20.4012 16.5817C20.4212 16.6507 20.4382 16.7277 20.4532 16.8157C20.6122 17.7197 20.3492 18.6456 19.7322 19.3586Z" fill="white"/>
</svg>
